<svg width="512" height="512" viewBox="0 0 512 512" fill="none" xmlns="http://www.w3.org/2000/svg">
  <rect width="512" height="512" rx="132" fill="url(#bg)"/>
  <rect x="96" y="118" width="320" height="276" rx="92" fill="url(#shell)"/>
  <rect x="122" y="146" width="268" height="220" rx="72" fill="url(#face)"/>
  <rect x="152" y="222" width="80" height="80" rx="40" fill="url(#eye)"/>
  <rect x="280" y="222" width="80" height="80" rx="40" fill="url(#eye)"/>
  <circle cx="192" cy="250" r="18" fill="#F4FEFF"/>
  <circle cx="320" cy="250" r="18" fill="#F4FEFF"/>
  <path d="M186 327C203.46 346.42 227.78 358 256 358C284.22 358 308.54 346.42 326 327" stroke="#8CF3E0" stroke-width="16" stroke-linecap="round"/>
  <rect x="232" y="78" width="48" height="58" rx="24" fill="#8AEED9"/>
  <circle cx="256" cy="66" r="26" fill="#57D7C5"/>
  <rect x="66" y="212" width="42" height="118" rx="21" fill="url(#limb)"/>
  <rect x="404" y="212" width="42" height="118" rx="21" fill="url(#limb)"/>
  <rect x="174" y="386" width="46" height="80" rx="23" fill="url(#limb)"/>
  <rect x="292" y="386" width="46" height="80" rx="23" fill="url(#limb)"/>
  <path d="M104 162C128 130 168 112 212 112H300C344 112 384 130 408 162" stroke="rgba(255,255,255,0.18)" stroke-width="8" stroke-linecap="round"/>
  <defs>
    <linearGradient id="bg" x1="72" y1="52" x2="444" y2="468" gradientUnits="userSpaceOnUse">
      <stop stop-color="#0E1B32"/>
      <stop offset="0.48" stop-color="#13294A"/>
      <stop offset="1" stop-color="#183760"/>
    </linearGradient>
    <linearGradient id="shell" x1="120" y1="132" x2="388" y2="410" gradientUnits="userSpaceOnUse">
      <stop stop-color="#57D7C5"/>
      <stop offset="0.4" stop-color="#33B9CC"/>
      <stop offset="1" stop-color="#4D8FFF"/>
    </linearGradient>
    <linearGradient id="face" x1="148" y1="164" x2="364" y2="348" gradientUnits="userSpaceOnUse">
      <stop stop-color="#112341"/>
      <stop offset="1" stop-color="#0B1830"/>
    </linearGradient>
    <linearGradient id="eye" x1="168" y1="228" x2="344" y2="304" gradientUnits="userSpaceOnUse">
      <stop stop-color="#7CF3E4"/>
      <stop offset="1" stop-color="#6CB4FF"/>
    </linearGradient>
    <linearGradient id="limb" x1="86" y1="198" x2="340" y2="456" gradientUnits="userSpaceOnUse">
      <stop stop-color="#44C9C9"/>
      <stop offset="1" stop-color="#4185E8"/>
    </linearGradient>
  </defs>
</svg>
